# xmcd
#
# Track frame offsets:
#	150
#	11734
#	22135
#	37095
#	49120
#	58117
#	69790
#	79085
#	91582
#
# Disc length: 1353 seconds
#
# Revision: 1
# Processed by: cddbd v1.4PL0 Copyright (c) Steve Scherf et al.
# Submitted via: audiograbber 1.82.00
#
DISCID=6c054709
DTITLE=Shirelles, Gladys Knight, Martha Reeves - 3 for 3
DYEAR=1900
DGENRE=Retro
TTITLE0=Martha Reeves - Dancing In The Streets
TTITLE1=Martha Reeves - In The Midmight Hour
TTITLE2=Martha Reeves - I Heard It Through The Grapevine
TTITLE3=The Shirelles - Will You Still Love Me tomorrow
TTITLE4=The Shirelles - Dedicated To The One I love
TTITLE5=The Shirelles - Baby It's You
TTITLE6=Gladys Knight - Every Beat Of My Heart
TTITLE7=Gladys Knight - Come See About Me
TTITLE8=Gladys Knight - Operator
EXTD=
EXTT0=
EXTT1=
EXTT2=
EXTT3=
EXTT4=
EXTT5=
EXTT6=
EXTT7=
EXTT8=
PLAYORDER=
